<svg xmlns="http://www.w3.org/2000/svg"  viewBox="0 0 48 48" width="96px" height="96px" baseProfile="basic"><linearGradient id="xlTsB0vNwThbtsyt75XlHa" x1="12.38" x2="27.463" y1="-31.309" y2="37.431" gradientUnits="userSpaceOnUse"><stop offset="0" stop-color="#f3f2f2"/><stop offset="1" stop-color="#f3f2f2"/></linearGradient><path fill="url(#xlTsB0vNwThbtsyt75XlHa)" d="M21.5,12C31.717,12,40,20.283,40,30.5c0,1.59-0.222,3.124-0.599,4.596	C41.656,31.972,43,28.147,43,24c0-10.493-8.507-19-19-19C14.211,5,6.158,12.405,5.119,21.918C8.214,16.025,14.383,12,21.5,12z"/><linearGradient id="xlTsB0vNwThbtsyt75XlHb" x1="6.02" x2="29.447" y1="29.558" y2="29.558" gradientUnits="userSpaceOnUse"><stop offset="0" stop-color="#f3f2f2"/><stop offset="1" stop-color="#f3f2f2"/></linearGradient><path fill="url(#xlTsB0vNwThbtsyt75XlHb)" d="M17.394,33.695c-3.109-5.224-3.681-11.989-1.642-17.58c-5.584,2.243-9.569,7.645-9.731,13.987	C8.565,37.598,15.645,43,24,43c1.895,0,3.721-0.289,5.447-0.807C24.222,41.051,20.036,38.135,17.394,33.695z"/><linearGradient id="xlTsB0vNwThbtsyt75XlHc" x1="22.775" x2="37.153" y1="32.423" y2="32.423" gradientUnits="userSpaceOnUse"><stop offset="0" stop-color="#f3f2f2"/><stop offset=".28" stop-color="#f3f2f2"/><stop offset=".575" stop-color="#f3f2f2"/><stop offset=".826" stop-color="#f3f2f2"/><stop offset="1" stop-color="#f3f2f2"/></linearGradient><path fill="url(#xlTsB0vNwThbtsyt75XlHc)" d="M35.537,25.107c-2.275,5.286-7.008,9.26-12.762,10.489c2.753,2.504,6.656,4.142,11.871,4.142	c0.976-0.652,1.864-1.441,1.864-1.441C37.69,33.277,37.177,28.778,35.537,25.107z"/></svg>