<svg width="500" height="500" viewBox="0 0 500 500" fill="none" xmlns="http://www.w3.org/2000/svg">
<g clip-path="url(#clip0_1_115)">
<rect width="500" height="500" fill="#0B0B0A"/>
<rect x="25" y="25" width="450" height="450" fill="white"/>
<rect x="50" y="50" width="400" height="400" fill="#0B0B0A"/>
<path d="M37.5 528V540.5H50H111.496H123.996V528V438.695H163.193C187.18 438.695 208.435 433.919 226.422 423.747C244.321 413.678 258.119 399.496 267.581 381.389C276.985 363.392 281.5 342.95 281.5 320.404C281.5 297.897 277.048 277.489 267.771 259.513C258.542 241.343 245.03 227.046 227.429 216.844C209.601 206.407 188.525 201.5 164.755 201.5H50H37.5V214V528ZM153.251 360.493H123.996V280.775H152.967C163.44 280.775 170.993 282.713 176.35 285.746L176.404 285.777L176.459 285.807C181.993 288.867 185.926 293.038 188.571 298.533L188.611 298.618L188.653 298.701C191.511 304.42 193.158 311.533 193.158 320.404C193.158 329.142 191.522 336.367 188.596 342.376L188.583 342.402L188.571 342.428C185.906 347.967 181.911 352.294 176.268 355.569C171.027 358.566 163.602 360.493 153.251 360.493Z" fill="#0B0B0A" stroke="white" stroke-width="25"/>
<path d="M389.388 -42.5H376.888V-30V172.841C376.888 180.966 375.675 186.974 373.797 191.313C371.952 195.575 369.513 198.32 366.596 200.15C363.785 201.881 359.804 203.097 354.019 203.097C348.547 203.097 344.437 202.038 341.289 200.379C338.237 198.633 335.792 196.203 333.875 192.83C332.081 189.424 330.87 184.879 330.719 178.782L330.418 166.591H318.223H257.002H244.563L244.502 179.03C244.398 200.145 248.905 218.756 258.888 234.07L258.9 234.088L258.911 234.106C268.6 248.86 281.771 259.896 298.132 267.095L298.178 267.115L298.224 267.135C314.269 274.041 331.888 277.386 350.894 277.386C372.186 277.386 391.456 273.336 408.359 264.831C425.255 256.329 438.643 244.081 448.232 228.183C458.021 212.111 462.683 193.505 462.683 172.841V-30V-42.5H450.183H389.388Z" fill="#0B0B0A" stroke="white" stroke-width="25"/>
</g>
<defs>
<clipPath id="clip0_1_115">
<rect width="500" height="500" fill="white"/>
</clipPath>
</defs>
</svg>
