<svg width="250" height="250" viewBox="0 0 250 250" fill="none" xmlns="http://www.w3.org/2000/svg">
<rect width="250" height="250" rx="20" fill="#FF7733"/>
<g clip-path="url(#clip0_1_5)">
<path d="M139.828 98.8578C137.309 101.378 133 99.593 133 96.0294V45H117V105C117 111.627 111.627 117 105 117H45V133H96.0294C99.5931 133 101.378 137.309 98.8579 139.828L63.3431 175.343L74.6569 186.657L110.172 151.142C112.684 148.63 116.975 150.396 117 153.939V205H133L133 145C133 138.373 138.373 133 145 133H205V117H153.939C150.407 116.975 148.64 112.709 151.12 110.194L151.142 110.172L186.657 74.6568L175.343 63.3432L139.828 98.8578Z" fill="#131313"/>
</g>
<defs>
<clipPath id="clip0_1_5">
<rect width="160" height="160" fill="white" transform="translate(45 45)"/>
</clipPath>
</defs>
</svg>
